<svg xmlns="http://www.w3.org/2000/svg" xmlns:xlink="http://www.w3.org/1999/xlink" preserveAspectRatio="xMidYMid meet" version="1.0" viewBox="3.5 4.7 49.4 49.7" zoomAndPan="magnify" style="fill: rgb(254, 255, 124);" original_string_length="1044"><g id="__id166_sygxen9mya"><path d="M30.071,27.101v-0.077c-0.016,0.025-0.033,0.052-0.05,0.077H30.071z" style="fill: inherit;"/><path d="M49.265,4.667H7.145c-2.017,0-3.651,1.597-3.651,3.563v42.612c0,1.967,1.635,3.562,3.651,3.562h42.12 c2.019,0,3.653-1.597,3.653-3.562V8.23C52.919,6.262,51.283,4.667,49.265,4.667z M18.475,46.304H11.01V23.845h7.466V46.304z M14.743,20.777h-0.05c-2.504,0-4.124-1.726-4.124-3.88c0-2.203,1.67-3.88,4.223-3.88c2.555,0,4.125,1.677,4.175,3.88 C18.967,19.052,17.345,20.777,14.743,20.777z M45.394,46.304h-7.465V34.286c0-3.018-1.08-5.078-3.781-5.078 c-2.062,0-3.29,1.39-3.831,2.731c-0.197,0.479-0.245,1.148-0.245,1.82v12.544h-7.465c0,0,0.098-20.354,0-22.46h7.465v3.18 c0.992-1.53,2.766-3.709,6.729-3.709c4.911,0,8.595,3.211,8.595,10.109L45.394,46.304L45.394,46.304z" style="fill: inherit;"/></g></svg>